<svg id="Group_3051" data-name="Group 3051" xmlns="http://www.w3.org/2000/svg" width="17.937" height="20.309" viewBox="0 0 17.937 20.309">
  <defs>
    <style>
      .cls-1 {
        fill: #dddd;
      }
    </style>
  </defs>
  <path id="Path_1258" data-name="Path 1258" class="cls-1" d="M809.347,2439.752c-.355-.1-.586-.456-.586-1.01v-18.313a.976.976,0,0,1,.506-.986h0l8.846,10.205-8.765,10.1Z" transform="translate(-808.761 -2419.443)"/>
  <path id="Path_1259" data-name="Path 1259" class="cls-1" d="M811.158,2442.913l10.648-6.139-2.593-2.992-8.054,9.131Z" transform="translate(-809.354 -2422.992)"/>
  <path id="Path_1260" data-name="Path 1260" class="cls-1" d="M821.952,2426.152l-10.5-6.055,7.848,9.112,2.651-3.057Z" transform="translate(-809.427 -2419.605)"/>
  <path id="Path_1261" data-name="Path 1261" class="cls-1" d="M825.414,2428.691l4.113,2.372a.856.856,0,0,1,0,1.626l-4.217,2.432-2.751-3.194,2.855-3.236Z" transform="translate(-812.177 -2421.732)"/>
</svg>
